<svg width="466" height="593" viewBox="0 0 466 593" fill="none" xmlns="http://www.w3.org/2000/svg">
<path d="M35.0466 83.9508C35.0466 130.457 53.0316 208.876 -14.8829 293.648C-81.2188 376.45 10.0414 114.254 101.695 98.0256C208.833 79.0554 24.1928 518.301 14.6722 428.909C9.34584 378.898 164.318 116.399 207.91 159.991C263.364 215.445 117.953 532.191 83.9995 526.981C24.1005 517.791 238.332 153.446 299.118 184.826C371.603 222.244 252.128 471.949 196.69 485.343C152.339 496.057 317.755 254.065 428.446 309.449" stroke="black" stroke-width="8" stroke-linecap="round"/>
<path d="M435.941 289.989C437.022 288.054 439.98 289.052 439.667 291.246L439.091 295.288C438.904 296.605 440.029 297.734 441.346 297.552L457.061 295.372C459.181 295.078 460.219 297.871 458.421 299.033L446.744 306.583C445.389 307.459 445.576 309.496 447.067 310.111L455.016 313.393C456.844 314.148 456.585 316.813 454.647 317.203L449.444 318.248C448.269 318.484 447.564 319.694 447.938 320.833L449.414 325.327C449.978 327.044 448.156 328.569 446.565 327.711L440.221 324.291C438.593 323.413 436.749 325.026 437.4 326.756L440.89 336.022C441.647 338.032 439.135 339.66 437.61 338.147L427.746 328.364C427.11 327.733 426.132 327.602 425.353 328.043L414.234 334.334C412.381 335.382 410.391 333.195 411.609 331.449L418.157 322.062C418.756 321.204 418.592 320.028 417.78 319.367L406.362 310.073C404.903 308.885 405.743 306.522 407.625 306.522H416.421C417.415 306.522 418.258 305.791 418.4 304.807L419.779 295.245C420.078 293.176 422.949 292.894 423.645 294.864L425.879 301.188C426.452 302.811 428.671 303 429.511 301.497L435.941 289.989Z" fill="#CD4631"/>
</svg>
