<svg width="52" height="28" viewBox="0 0 52 28" fill="none" xmlns="http://www.w3.org/2000/svg">
<rect x="0.5" y="0.5" width="51" height="27" rx="3.5" stroke="#CD4631"/>
<path d="M14.358 13.904C14.918 14.0813 15.3567 14.38 15.674 14.8C15.9913 15.2107 16.15 15.7193 16.15 16.326C16.15 17.1847 15.814 17.8473 15.142 18.314C14.4793 18.7713 13.5087 19 12.23 19H7.162V9.2H11.95C13.1447 9.2 14.0593 9.42867 14.694 9.886C15.338 10.3433 15.66 10.964 15.66 11.748C15.66 12.224 15.5433 12.6487 15.31 13.022C15.086 13.3953 14.7687 13.6893 14.358 13.904ZM9.416 10.908V13.218H11.67C12.23 13.218 12.6547 13.12 12.944 12.924C13.2333 12.728 13.378 12.4387 13.378 12.056C13.378 11.6733 13.2333 11.3887 12.944 11.202C12.6547 11.006 12.23 10.908 11.67 10.908H9.416ZM12.062 17.292C12.6593 17.292 13.1073 17.194 13.406 16.998C13.714 16.802 13.868 16.4987 13.868 16.088C13.868 15.276 13.266 14.87 12.062 14.87H9.416V17.292H12.062ZM25.8751 18.16C25.4084 18.4773 24.8204 18.7247 24.1111 18.902C23.4111 19.0793 22.6644 19.168 21.8711 19.168C20.8817 19.168 20.0417 19.0467 19.3511 18.804C18.6604 18.552 18.1377 18.2067 17.7831 17.768C17.4284 17.32 17.2511 16.8113 17.2511 16.242C17.2511 15.7193 17.3957 15.2573 17.6851 14.856C17.9744 14.4547 18.3711 14.156 18.8751 13.96C18.4924 13.7547 18.1937 13.4747 17.9791 13.12C17.7737 12.7653 17.6711 12.3687 17.6711 11.93C17.6711 11.398 17.8344 10.9127 18.1611 10.474C18.4877 10.0353 18.9824 9.68533 19.6451 9.424C20.3077 9.16267 21.1197 9.032 22.0811 9.032C22.7157 9.032 23.3364 9.09733 23.9431 9.228C24.5497 9.34933 25.0771 9.51733 25.5251 9.732L24.8951 11.468C24.0364 11.0667 23.1264 10.866 22.1651 10.866C21.4371 10.866 20.8864 10.978 20.5131 11.202C20.1491 11.4167 19.9671 11.7107 19.9671 12.084C19.9671 12.4293 20.0884 12.6953 20.3311 12.882C20.5831 13.0593 20.9611 13.148 21.4651 13.148H24.1391V14.94H21.3251C20.7557 14.94 20.3171 15.038 20.0091 15.234C19.7011 15.43 19.5471 15.7147 19.5471 16.088C19.5471 16.48 19.7431 16.788 20.1351 17.012C20.5364 17.2267 21.1477 17.334 21.9691 17.334C22.5477 17.334 23.1264 17.2593 23.7051 17.11C24.2837 16.9513 24.7737 16.732 25.1751 16.452L25.8751 18.16ZM34.2629 11.944C33.4229 11.4587 32.5223 11.146 31.5609 11.006V19H29.2929V11.006C28.3316 11.146 27.4263 11.4587 26.5769 11.944L25.8069 10.25C26.4789 9.84867 27.2069 9.54533 27.9909 9.34C28.7749 9.13467 29.5823 9.032 30.4129 9.032C31.2529 9.032 32.0649 9.13467 32.8489 9.34C33.6423 9.54533 34.3703 9.84867 35.0329 10.25L34.2629 11.944ZM40.324 9.032C41.2293 9.032 42.018 9.20933 42.69 9.564C43.362 9.91867 43.8846 10.4413 44.258 11.132C44.6313 11.8227 44.818 12.658 44.818 13.638V19H42.55V16.648H38.07V19H35.83V13.638C35.83 12.658 36.0166 11.8227 36.39 11.132C36.7633 10.4413 37.286 9.91867 37.958 9.564C38.63 9.20933 39.4186 9.032 40.324 9.032ZM42.55 14.828V13.428C42.55 12.616 42.3493 12.0047 41.948 11.594C41.5466 11.174 41.0006 10.964 40.31 10.964C39.61 10.964 39.0593 11.174 38.658 11.594C38.266 12.0047 38.07 12.616 38.07 13.428V14.828H42.55Z" fill="#CD4631"/>
</svg>
