<svg width="23" height="22" viewBox="0 0 23 22" fill="none" xmlns="http://www.w3.org/2000/svg">
<path d="M9.91229 7.00049V10.3343V11.6668V15.0005H12.7444V11.6668V10.3343V7.00049H9.91229Z" fill="#FAB908"/>
<path d="M1.41627 11.625C2.19832 11.625 2.8323 11.0094 2.8323 10.25C2.8323 9.49061 2.19832 8.875 1.41627 8.875C0.634222 8.875 0.000244141 9.49061 0.000244141 10.25C0.000244141 11.0094 0.634222 11.625 1.41627 11.625Z" fill="#0066D9"/>
<path d="M1.41627 13.125C2.19832 13.125 2.8323 12.5094 2.8323 11.75C2.8323 10.9906 2.19832 10.375 1.41627 10.375C0.634222 10.375 0.000244141 10.9906 0.000244141 11.75C0.000244141 12.5094 0.634222 13.125 1.41627 13.125Z" fill="#0066D9"/>
<path d="M2.8323 10.2505H0.000244141V11.7505H2.8323V10.2505Z" fill="#0066D9"/>
<path d="M21.2404 13.125C22.0225 13.125 22.6564 12.5094 22.6564 11.75C22.6564 10.9906 22.0225 10.375 21.2404 10.375C20.4584 10.375 19.8244 10.9906 19.8244 11.75C19.8244 12.5094 20.4584 13.125 21.2404 13.125Z" fill="#4285F4"/>
<path d="M21.2404 11.625C22.0225 11.625 22.6564 11.0094 22.6564 10.25C22.6564 9.49061 22.0225 8.875 21.2404 8.875C20.4584 8.875 19.8244 9.49061 19.8244 10.25C19.8244 11.0094 20.4584 11.625 21.2404 11.625Z" fill="#4285F4"/>
<path d="M19.8244 11.7505H22.6564V10.2505H19.8244V11.7505Z" fill="#4285F4"/>
<path d="M6.30787 16.1255C7.08989 16.1255 7.72388 15.5099 7.72388 14.7505C7.72388 13.9911 7.08989 13.3755 6.30787 13.3755C5.52582 13.3755 4.89185 13.9911 4.89185 14.7505C4.89185 15.5099 5.52582 16.1255 6.30787 16.1255Z" fill="#EA4335"/>
<path d="M6.30787 17.6251C7.08989 17.6251 7.72388 17.0095 7.72388 16.2501C7.72388 15.4907 7.08989 14.875 6.30787 14.875C5.52582 14.875 4.89185 15.4907 4.89185 16.2501C4.89185 17.0095 5.52582 17.6251 6.30787 17.6251Z" fill="#EA4335"/>
<path d="M7.72388 14.7505H4.89185V16.2505H7.72388V14.7505Z" fill="#EA4335"/>
<path d="M6.30787 7.12499C7.08989 7.12499 7.72388 6.50938 7.72388 5.75001C7.72388 4.99061 7.08989 4.375 6.30787 4.375C5.52582 4.375 4.89185 4.99061 4.89185 5.75001C4.89185 6.50938 5.52582 7.12499 6.30787 7.12499Z" fill="#EA4335"/>
<path d="M6.30787 11.9995C7.08989 11.9995 7.72388 11.3839 7.72388 10.6245C7.72388 9.86512 7.08989 9.24951 6.30787 9.24951C5.52582 9.24951 4.89185 9.86512 4.89185 10.6245C4.89185 11.3839 5.52582 11.9995 6.30787 11.9995Z" fill="#EA4335"/>
<path d="M7.72388 5.75H4.89185V10.6563H7.72388V5.75Z" fill="#EA4335"/>
<path d="M16.3489 8.62551C17.131 8.62551 17.7649 8.0099 17.7649 7.2505C17.7649 6.4911 17.131 5.87549 16.3489 5.87549C15.5669 5.87549 14.9329 6.4911 14.9329 7.2505C14.9329 8.0099 15.5669 8.62551 16.3489 8.62551Z" fill="#34A853"/>
<path d="M16.3489 7.12499C17.131 7.12499 17.7649 6.50938 17.7649 5.75001C17.7649 4.99061 17.131 4.375 16.3489 4.375C15.5669 4.375 14.9329 4.99061 14.9329 5.75001C14.9329 6.50938 15.5669 7.12499 16.3489 7.12499Z" fill="#34A853"/>
<path d="M14.9327 7.25H17.7648V5.75H14.9327V7.25Z" fill="#34A853"/>
<path d="M11.3283 4.2505C12.1104 4.2505 12.7444 3.63489 12.7444 2.87549C12.7444 2.1161 12.1104 1.50049 11.3283 1.50049C10.5463 1.50049 9.91229 2.1161 9.91229 2.87549C9.91229 3.63489 10.5463 4.2505 11.3283 4.2505Z" fill="#FAB908"/>
<path d="M11.3283 2.75001C12.1104 2.75001 12.7444 2.1344 12.7444 1.37501C12.7444 0.615613 12.1104 0 11.3283 0C10.5463 0 9.91229 0.615613 9.91229 1.37501C9.91229 2.1344 10.5463 2.75001 11.3283 2.75001Z" fill="#FAB908"/>
<path d="M9.91241 2.87501H12.7445V1.375H9.91241V2.87501Z" fill="#FAB908"/>
<path d="M11.3283 22C12.1104 22 12.7444 21.3844 12.7444 20.625C12.7444 19.8656 12.1104 19.25 11.3283 19.25C10.5463 19.25 9.91229 19.8656 9.91229 20.625C9.91229 21.3844 10.5463 22 11.3283 22Z" fill="#FAB908"/>
<path d="M11.3283 20.5005C12.1104 20.5005 12.7444 19.8849 12.7444 19.1255C12.7444 18.3661 12.1104 17.7505 11.3283 17.7505C10.5463 17.7505 9.91229 18.3661 9.91229 19.1255C9.91229 19.8849 10.5463 20.5005 11.3283 20.5005Z" fill="#FAB908"/>
<path d="M9.91241 20.6255H12.7445V19.1255H9.91241V20.6255Z" fill="#FAB908"/>
<path d="M16.3489 17.6251C17.131 17.6251 17.7649 17.0095 17.7649 16.2501C17.7649 15.4907 17.131 14.875 16.3489 14.875C15.5669 14.875 14.9329 15.4907 14.9329 16.2501C14.9329 17.0095 15.5669 17.6251 16.3489 17.6251Z" fill="#34A853"/>
<path d="M16.3489 12.7505C17.131 12.7505 17.7649 12.1349 17.7649 11.3755C17.7649 10.6161 17.131 10.0005 16.3489 10.0005C15.5669 10.0005 14.9329 10.6161 14.9329 11.3755C14.9329 12.1349 15.5669 12.7505 16.3489 12.7505Z" fill="#34A853"/>
<path d="M14.9327 16.2506H17.7648V11.3755H14.9327V16.2506Z" fill="#34A853"/>
<path d="M11.3283 8.37553C12.1104 8.37553 12.7444 7.75986 12.7444 7.00052C12.7444 6.24113 12.1104 5.62549 11.3283 5.62549C10.5463 5.62549 9.91229 6.24113 9.91229 7.00052C9.91229 7.75986 10.5463 8.37553 11.3283 8.37553Z" fill="#FAB908"/>
<path d="M11.3283 16.3755C12.1104 16.3755 12.7444 15.7599 12.7444 15.0005C12.7444 14.2411 12.1104 13.6255 11.3283 13.6255C10.5463 13.6255 9.91229 14.2411 9.91229 15.0005C9.91229 15.7599 10.5463 16.3755 11.3283 16.3755Z" fill="#FAB908"/>
</svg>
